<svg width="426" height="426" viewBox="0 0 426 426" fill="none" xmlns="http://www.w3.org/2000/svg">
<path d="M212.6 0C95.2 0 0 95.2 0 212.6C0 330 95.2 425.2 212.6 425.2C330 425.2 425.2 330 425.2 212.6C425.2 95.2 330 0 212.6 0ZM353.9 202.1H352.6C343.9 202.1 336.8 195 336.8 186.3V174.4C336.8 174.3 336.8 173.9 336.4 173.8C336 173.6 335.8 173.8 335.7 173.9L264 245.5C261 248.5 257.1 250.1 252.8 250.1C248.6 250.1 244.6 248.5 241.6 245.5L198 201.8C195.8 199.6 192.3 199.6 190.1 201.8L80.5 311.4C77.4 314.5 73.4 316 69.3 316C65.3 316 61.2 314.5 58.1 311.4L57.2 310.5C54.2 307.5 52.6 303.6 52.6 299.3C52.6 295.1 54.2 291.1 57.2 288.1L182.8 162.5C189 156.4 199 156.3 205.1 162.5L248.8 206.2C249.9 207.3 251.3 207.8 252.8 207.8C254.3 207.8 255.7 207.2 256.8 206.2L312.3 150.7C312.4 150.6 312.6 150.4 312.4 150C312.2 149.6 311.9 149.6 311.8 149.6H300C291.3 149.6 284.2 142.5 284.2 133.8V132.5C284.2 123.8 291.3 116.7 300 116.7H353.9C362.6 116.7 369.7 123.8 369.7 132.5V186.4C369.6 195 362.6 202.1 353.9 202.1Z" fill="#134DA0"/>
</svg>
