<svg width="426" height="426" viewBox="0 0 426 426" fill="none" xmlns="http://www.w3.org/2000/svg">
<path d="M308.1 249.6L225.5 201.9V97.7999C225.5 90.6999 219.7 84.8999 212.6 84.8999C205.5 84.8999 199.7 90.6999 199.7 97.7999V209.2C199.7 214 202.3 218.1 206.1 220.3L295.2 271.7C301.3 275.3 309.2 273.2 312.7 267C316.2 260.8 314.2 253.1 308.1 249.6Z" fill="#134DA0"/>
<path d="M212.6 0C95.2 0 0 95.2 0 212.6C0 330 95.2 425.2 212.6 425.2C330 425.2 425.2 330 425.2 212.6C425.2 95.2 330 0 212.6 0ZM212.6 380.7C117.9 380.7 41.2 303.9 41.2 209.3C41.2 114.7 117.9 37.8 212.6 37.8C307.3 37.8 384 114.6 384 209.2C384 303.8 307.3 380.7 212.6 380.7Z" fill="#134DA0"/>
</svg>
