<svg width="426" height="426" viewBox="0 0 426 426" fill="none" xmlns="http://www.w3.org/2000/svg">
<path d="M212.6 88.7002C181.1 88.7002 155.6 114.8 155.6 147.1C155.6 179.3 181.1 205.5 212.6 205.5C244.1 205.5 269.6 179.4 269.6 147.1C269.6 114.8 244.1 88.7002 212.6 88.7002Z" fill="#134DA0"/>
<path d="M212.6 0C95.2 0 0 95.2 0 212.6C0 330 95.2 425.2 212.6 425.2C330 425.2 425.2 330 425.2 212.6C425.2 95.2 330 0 212.6 0ZM218 381.5C217.9 381.7 217.7 381.8 217.6 382C214.6 385.1 210 384.8 207.3 381.5C185.3 354.9 103.3 249.5 103.3 155.8C103.3 88.1 152.3 33.3 212.7 33.3C273 33.4 322 88.2 322 155.9C322 249.5 240 355 218 381.5Z" fill="#134DA0"/>
</svg>
